# xmcd
#
# Track frame offsets:
# 150
# 2348
# 25325
# 42485
# 58869
# 72910
# 107107
# 134945
# 153576
# 184397
# 205617
#
# Disc length: 2767 seconds
#
#
# Revision: 0
# Processed by: cddbd v1.5.2PL0 Copyright (c) Steve Scherf et al.
# Submitted via: FreeRIP 2.943 
#
DISCID=a00acd0b
DTITLE=CELINE - CELINE
DYEAR=1900
DGENRE=Vocal
TTITLE0=THE POWER OF LOVE
TTITLE1=IF YUO ASKED ME TO
TTITLE2=MISLED
TTITLE3=BEAUT AND THE BEAST
TTITLE4=BECAUSEYUO LOVED ME
TTITLE5=IT'SALL COMING BACK TO ME NOW
TTITLE6=LOVE CAN MOVE MOUNTAINS
TTITLE7=TO LOVE YOU MORE
TTITLE8=MY HEARTWILL GO ON
TTITLE9=dAIANE
TTITLE10=EU ME AMO
EXTD=
EXTT0=
EXTT1=
EXTT2=
EXTT3=
EXTT4=
EXTT5=
EXTT6=
EXTT7=
EXTT8=
EXTT9=
EXTT10=
PLAYORDER=
